HIERARCHY
ROOT Joint1
{
	OFFSET 0.000000 0.000000 0.000000
	CHANNELS 6 Xposition Yposition Zposition Xrotation Yrotation Zrotation
	JOINT Joint2
	{
		OFFSET -0.000000 0.000000 1.456275
		CHANNELS 6 Xposition Yposition Zposition Xrotation Yrotation Zrotation
		JOINT Joint3
		{
			OFFSET -0.000000 0.000002 1.471446
			CHANNELS 6 Xposition Yposition Zposition Xrotation Yrotation Zrotation
			JOINT Joint4
			{
				OFFSET 0.625745 0.000000 0.917755
				CHANNELS 6 Xposition Yposition Zposition Xrotation Yrotation Zrotation
				JOINT Joint5
				{
					OFFSET -0.629534 0.000001 0.940221
					CHANNELS 6 Xposition Yposition Zposition Xrotation Yrotation Zrotation
					JOINT Joint6
					{
						OFFSET -0.000001 0.113772 1.960660
						CHANNELS 6 Xposition Yposition Zposition Xrotation Yrotation Zrotation
						JOINT Joint7
						{
							OFFSET -0.669733 -0.113771 0.388340
							CHANNELS 6 Xposition Yposition Zposition Xrotation Yrotation Zrotation
							End Site
							{
								OFFSET 0.005509 0.005509 0.438980
							}
						}
					}
				}
			}
		}
	}
}
MOTION
Frames: 12
Frame Time: 0.041667
0.000000 0.000000 0.000000 -0.000000 1.019410 44.166817 -0.000000 0.000000 1.456275 -0.000000 -41.798050 0.000003 -0.000000 0.000002 1.471446 -0.000002 -1.133454 62.967077 0.625744 0.000000 0.917755 -0.000016 69.572799 -0.000001 -0.629534 0.000001 0.940221 0.000002 1.709738 10.973847 -0.000001 0.113772 1.960661 -88.303868 105.215656 0.000004 -0.669734 -0.113771 0.388340 0.255916 2.217094 25.900578 
0.000000 0.000000 0.000000 -0.000000 1.019410 44.886040 -0.000000 -0.000000 1.456275 -0.000003 -41.746167 -0.000001 -0.000000 0.000002 1.471446 -0.000005 -1.133455 63.992794 0.625745 0.000000 0.917755 -0.000005 68.507187 -0.000002 -0.629534 0.000001 0.940221 -0.000002 1.709739 11.152774 -0.000001 0.113772 1.960661 -88.303855 105.463831 0.000006 -0.669733 -0.113771 0.388340 0.245145 2.187493 24.126214 
0.000000 0.000000 0.000000 -0.000000 1.019410 45.605293 -0.000000 -0.000000 1.456275 0.000000 -41.694282 0.000005 -0.000000 0.000002 1.471445 -0.000002 -1.133450 65.018545 0.625745 0.000001 0.917755 -0.000012 67.441534 -0.000002 -0.629534 0.000001 0.940221 -0.000001 1.709734 11.331704 -0.000001 0.113773 1.960660 -88.303882 105.712006 0.000023 -0.669733 -0.113771 0.388340 0.233458 2.158240 22.351806 
0.000000 0.000000 0.000000 -0.000000 1.019410 46.445310 -0.000000 -0.000000 1.456275 0.000002 -41.633684 -0.000001 -0.000001 0.000002 1.471446 -0.000000 -1.133454 66.216539 0.625745 0.000000 0.917755 -0.000004 66.196937 0.000006 -0.629534 0.000001 0.940221 -0.000001 1.709735 11.540677 -0.000001 0.113772 1.960661 -88.303868 106.001865 0.000019 -0.669733 -0.113771 0.388340 0.218670 2.124554 20.279494 
0.000000 0.000000 0.000000 -0.000000 1.019410 47.526816 -0.000000 0.000000 1.456275 -0.000002 -41.555667 -0.000001 -0.000000 0.000002 1.471446 0.000000 -1.133453 67.758933 0.625744 0.000001 0.917755 -0.000005 64.594540 0.000000 -0.629534 0.000001 0.940221 -0.000006 1.709739 11.809731 -0.000001 0.113772 1.960661 -88.303882 106.375046 0.000007 -0.669733 -0.113771 0.388340 0.197858 2.082009 17.611474 
0.000000 0.000000 0.000000 -0.000000 1.019410 48.879354 -0.000000 0.000000 1.456275 -0.000000 -41.458094 0.000002 -0.000000 0.000002 1.471446 -0.000005 -1.133453 69.687833 0.625744 0.000001 0.917755 -0.000001 62.590604 0.000002 -0.629534 0.000001 0.940221 -0.000002 1.709736 12.146206 -0.000001 0.113772 1.960660 -88.303868 106.841733 0.000007 -0.669733 -0.113771 0.388340 0.169071 2.030232 14.274960 
0.000000 0.000000 0.000000 -0.000000 1.019410 50.167606 -0.000000 -0.000000 1.456275 0.000001 -41.365159 0.000001 -0.000001 0.000002 1.471446 -0.000004 -1.133457 71.525072 0.625745 0.000000 0.917755 0.000000 60.681887 0.000003 -0.629534 0.000001 0.940221 0.000004 1.709736 12.466696 -0.000001 0.113772 1.960661 -88.303862 107.286262 0.000012 -0.669733 -0.113771 0.388340 0.138902 1.982562 11.097075 
0.000000 0.000000 0.000000 -0.000000 1.019410 51.092011 -0.000000 0.000000 1.456275 -0.000003 -41.298476 -0.000001 -0.000000 0.000002 1.471446 -0.000005 -1.133453 72.843401 0.625745 0.000000 0.917755 -0.000005 59.312284 -0.000000 -0.629534 0.000001 0.940221 0.000002 1.709736 12.696661 -0.000001 0.113772 1.960661 -88.303875 107.605232 0.000008 -0.669733 -0.113770 0.388341 0.115642 1.949416 8.816775 
0.000000 0.000000 0.000000 -0.000000 1.019410 51.860622 -0.000000 -0.000000 1.456275 0.000001 -41.243028 -0.000000 -0.000000 0.000002 1.471445 -0.000002 -1.133455 73.939544 0.625745 0.000000 0.917755 0.000005 58.173500 0.000002 -0.629534 0.000001 0.940221 -0.000001 1.709739 12.887874 -0.000001 0.113772 1.960660 -88.303875 107.870441 0.000014 -0.669733 -0.113771 0.388340 0.095313 1.922582 6.920824 
0.000000 0.000000 0.000000 -0.000000 1.019410 52.808400 -0.000000 -0.000000 1.456275 -0.000000 -41.174651 0.000001 -0.000000 0.000001 1.471446 -0.000004 -1.133452 75.291211 0.625744 0.000000 0.917755 -0.000003 56.769254 -0.000002 -0.629534 0.000001 0.940221 -0.000001 1.709736 13.123654 -0.000001 0.113773 1.960661 -88.303868 108.197484 0.000011 -0.669733 -0.113771 0.388341 0.069041 1.890443 4.582932 
0.000000 0.000000 0.000000 -0.000000 1.019410 54.128788 -0.000000 -0.000000 1.456275 0.000003 -41.079401 0.000000 -0.000000 0.000002 1.471446 -0.000002 -1.133454 77.174273 0.625745 0.000000 0.917755 -0.000000 54.812931 0.000003 -0.629533 0.000001 0.940221 -0.000001 1.709737 13.452134 -0.000001 0.113772 1.960661 -88.303868 108.653092 0.000013 -0.669734 -0.113771 0.388340 0.030298 1.847507 1.325935 
0.000000 0.000000 0.000000 -0.000000 1.019410 55.449183 -0.000000 0.000000 1.456275 -0.000001 -40.984147 -0.000002 -0.000000 0.000002 1.471446 -0.000003 -1.133455 79.057343 0.625744 0.000000 0.917755 -0.000002 52.856607 0.000002 -0.629534 0.000001 0.940221 -0.000001 1.709735 13.780611 -0.000001 0.113772 1.960661 -88.303868 109.108700 0.000004 -0.669734 -0.113771 0.388340 -0.010823 1.806839 -1.930989 
